# xmcd
#
# Track frame offsets: 
#        150
#        25687
#        46405
#        66370
#        81632
#        102442
#        117020
#        136422
#        167380
#        173972
#        194672
#        225122
#
# Disc length: 3582 seconds
#
# Revision: 0
# Processed by: cddbd v1.4PL0 Copyright (c) Steve Scherf et al.
# Submitted via: ExactAudioCopy v0.90b4
#
DISCID=9c0dfc0c
DTITLE=Jesus Volt - Always Drunk, Never Sad
DYEAR=2003
DGENRE=Blues
TTITLE0=Broke, Naked And Drunk
TTITLE1=I Wish I Could Be
TTITLE2=Backdoor Man
TTITLE3=S.B.W.
TTITLE4=Hometown Blues
TTITLE5=Checking Upon My Babe
TTITLE6=One Way Out
TTITLE7=A Forest
TTITLE8=Jig Around
TTITLE9=Coda Man
TTITLE10=Jig Up And Down
TTITLE11=Honey What's Your Name
EXTD=
EXTT0=
EXTT1=
EXTT2=
EXTT3=
EXTT4=
EXTT5=
EXTT6=
EXTT7=
EXTT8=
EXTT9=
EXTT10=
EXTT11=
PLAYORDER=
